<?xml version="1.0" encoding="utf-8"?>
<!-- Generator: Adobe Illustrator 16.0.0, SVG Export Plug-In . SVG Version: 6.00 Build 0)  -->
<!DOCTYPE svg PUBLIC "-//W3C//DTD SVG 1.1//EN" "http://www.w3.org/Graphics/SVG/1.1/DTD/svg11.dtd">
<svg version="1.1" id="Layer_1" xmlns="http://www.w3.org/2000/svg" xmlns:xlink="http://www.w3.org/1999/xlink" x="0px" y="0px"
	 width="1920px" height="1080px" viewBox="0 0 1920 1080" enable-background="new 0 0 1920 1080" xml:space="preserve">
<g id="XMLID_822_">
	<g id="XMLID_1_">
		<g>
			<path fill="#FF0000" d="M1500,446.51v186.98c0,118.55-18.7,187.02-62.52,228.96c-42.73,40.899-108.79,57.58-227.99,57.58H710.51
				C464.93,920.03,420,823.54,420,633.49V446.51c0-98.09,0-168.97,37.87-217.08c38.83-49.34,112.03-69.46,252.64-69.46h498.971
				c137.46,0,209.439,18.9,248.42,65.24C1497.07,271.76,1500,343.06,1500,446.51z M1113.36,565.82
				c11.51-6.021,18.72-17.94,18.71-30.93c-0.021-12.99-7.261-24.89-18.79-30.87L886.7,386.36c-10.8-5.61-23.74-5.18-34.15,1.14
				c-10.4,6.32-16.75,17.61-16.75,29.78V653.36c0,12.18,6.37,23.479,16.79,29.8c5.54,3.35,11.79,5.04,18.05,5.04
				c5.53,0,11.07-1.32,16.14-3.96L1113.36,565.82z"/>
		</g>
		<g>
		</g>
	</g>
</g>
</svg>
